<svg aria-hidden="true" style="width:0;height:0;position:absolute;overflow:hidden" xmlns="http://www.w3.org/2000/svg"><defs><symbol id="icon-github" viewBox="0 0 32 32"><path d="M16 .378C10.127.378 5.364 5.14 5.364 11.014c0 4.699 3.047 8.686 7.274 10.092.531.099.727-.231.727-.512 0-.253-.01-1.091-.014-1.98-2.959.643-3.583-1.255-3.583-1.255-.484-1.23-1.181-1.556-1.181-1.556-.965-.66.072-.646.072-.646 1.068.075 1.631 1.096 1.631 1.096.948 1.626 2.488 1.156 3.095.884.096-.688.371-1.157.675-1.422-2.362-.269-4.846-1.181-4.846-5.256 0-1.161.415-2.11 1.096-2.855-.111-.268-.475-1.35.103-2.815 0 0 .893-.285 2.925 1.091A10.185 10.185 0 0 1 16 5.522c.904.004 1.815.122 2.664.358 2.03-1.376 2.922-1.091 2.922-1.091.579 1.465.215 2.547.105 2.815.682.745 1.095 1.694 1.095 2.855 0 4.085-2.488 4.984-4.857 5.248.381.33.721.977.721 1.97 0 1.423-.012 2.568-.012 2.919 0 .282.192.614.73.51a10.636 10.636 0 0 0 7.267-10.091C26.635 5.142 21.874.38 15.999.38z"/><path d="M9.393 15.649c-.024.053-.107.069-.182.033-.078-.035-.12-.107-.095-.16.023-.054.106-.069.183-.033.078.035.121.107.095.161zm.43.481c-.051.047-.15.025-.217-.049-.069-.074-.082-.174-.031-.221s.148-.025.217.049c.07.075.084.173.031.221zm.419.612c-.065.046-.172.003-.238-.092s-.066-.207.001-.253c.066-.046.171-.005.238.089.066.096.066.21-.001.256zm.575.592c-.058.064-.182.047-.273-.041-.093-.086-.119-.207-.06-.272s.184-.046.275.041c.092.085.12.207.058.271zm.793.343c-.026.084-.146.121-.266.086-.12-.037-.199-.134-.175-.218.025-.084.146-.123.267-.085.12.036.199.133.174.218zm.87.064c.003.087-.099.16-.226.162-.127.003-.23-.068-.232-.154 0-.088.1-.16.227-.163s.23.068.23.155zm.81-.137c.015.085-.072.174-.198.197-.123.023-.238-.03-.254-.115-.015-.087.074-.175.197-.198.126-.022.238.029.254.116zM6.214 27.076H3.539a.125.125 0 0 0-.125.125v1.308c0 .069.056.125.125.125h1.043v1.625s-.234.08-.882.08c-.764 0-1.832-.279-1.832-2.627s1.112-2.657 2.156-2.657c.904 0 1.293.159 1.54.236.077.023.15-.054.15-.123l.298-1.264v-.003a.116.116 0 0 0-.048-.094c-.101-.072-.714-.415-2.264-.415-1.786 0-3.618.759-3.618 4.412s2.098 4.197 3.865 4.197c1.464 0 2.351-.625 2.351-.625.037-.02.04-.071.04-.095v-4.079a.125.125 0 0 0-.125-.125zm13.663-3.373h-1.506a.125.125 0 0 0-.125.125v2.912h-2.348v-2.912a.125.125 0 0 0-.124-.125h-1.506a.124.124 0 0 0-.124.125v7.884c0 .069.056.126.124.126h1.506a.124.124 0 0 0 .124-.125V28.34h2.348l-.004 3.372c0 .07.056.126.125.126h1.509a.124.124 0 0 0 .124-.125v-7.884a.124.124 0 0 0-.124-.125zm-11.792.179c-.536 0-.971.438-.971.981s.435.981.971.981c.537 0 .971-.439.971-.981s-.435-.981-.971-.981zm.739 2.402H7.322c-.069 0-.13.071-.13.14v5.213c0 .153.096.199.219.199h1.353c.149 0 .185-.073.185-.201V26.41a.125.125 0 0 0-.124-.125zm16.902.012h-1.495a.125.125 0 0 0-.124.125v3.866s-.38.277-.919.277-.682-.244-.682-.772v-3.371a.125.125 0 0 0-.124-.125h-1.517a.126.126 0 0 0-.125.125v3.626c0 1.567.874 1.951 2.076 1.951.986 0 1.781-.545 1.781-.545s.038.288.055.321a.131.131 0 0 0 .11.068l.965-.004a.125.125 0 0 0 .125-.125v-.001l-.001-5.291a.125.125 0 0 0-.125-.125zm4.085-.177c-.849 0-1.427.379-1.427.379v-2.67a.125.125 0 0 0-.124-.125h-1.51a.125.125 0 0 0-.125.125V31.713c0 .069.056.125.125.125h1.048c.047 0 .083-.024.109-.067s.064-.363.064-.363.617.585 1.787.585c1.372 0 2.16-.696 2.16-3.125s-1.258-2.747-2.107-2.747zm-.59 4.44c-.518-.016-.87-.251-.87-.251v-2.496s.347-.212.773-.251c.538-.048 1.057.114 1.057 1.398 0 1.354-.234 1.622-.959 1.599zm-15.922-.029c-.066 0-.234.027-.408.027-.555 0-.743-.258-.743-.592v-2.216h1.13a.125.125 0 0 0 .125-.125V26.409a.125.125 0 0 0-.125-.125h-1.13l-.002-1.492c0-.057-.029-.085-.095-.085h-1.54c-.059 0-.092.026-.092.084v1.543s-.772.186-.824.201a.126.126 0 0 0-.09.12v.97c0 .069.056.125.124.125h.79v2.332c0 1.733 1.215 1.902 2.035 1.902a3.4 3.4 0 0 0 .896-.148c.045-.017.071-.063.071-.113l.001-1.066a.126.126 0 0 0-.125-.125z"/></symbol><symbol id="icon-linkedin" viewBox="0 0 32 32"><path d="M31.992 32v-.001H32V20.263c0-5.741-1.236-10.164-7.948-10.164-3.227 0-5.392 1.771-6.276 3.449h-.093v-2.913h-6.364v21.364h6.627V21.42c0-2.785.528-5.479 3.977-5.479 3.399 0 3.449 3.179 3.449 5.657v10.401h6.62zM.528 10.636h6.635V32H.528V10.636zM3.843 0C1.722 0 0 1.721 0 3.843s1.721 3.879 3.843 3.879c2.121 0 3.843-1.757 3.843-3.879A3.846 3.846 0 0 0 3.843 0z"/></symbol></defs></svg>