<svg aria-hidden="true" style="width:0;height:0;position:absolute;overflow:hidden" xmlns="http://www.w3.org/2000/svg"><defs><symbol id="icon-apple" viewBox="0 0 26 32"><path d="M25.219 10.909c-.186.144-3.462 1.99-3.462 6.096 0 4.749 4.17 6.429 4.294 6.47-.019.102-.662 2.301-2.198 4.541-1.37 1.971-2.8 3.939-4.976 3.939s-2.736-1.264-5.248-1.264c-2.448 0-3.318 1.306-5.309 1.306s-3.379-1.824-4.976-4.064C1.494 25.303 0 21.216 0 17.338c0-6.221 4.045-9.52 8.026-9.52 2.115 0 3.878 1.389 5.206 1.389 1.264 0 3.235-1.472 5.642-1.472.912 0 4.189.083 6.346 3.174zm-7.488-5.808C18.726 3.92 19.43 2.282 19.43.643A3.04 3.04 0 0 0 19.369 0c-1.619.061-3.546 1.078-4.707 2.426-.912 1.037-1.763 2.675-1.763 4.336 0 .25.042.499.061.579.102.019.269.042.435.042 1.453 0 3.28-.973 4.336-2.282z"/></symbol><symbol id="icon-google" viewBox="0 0 32 32"><path d="M16.319 13.713V19.2h9.075c-.369 2.356-2.744 6.9-9.075 6.9C10.856 26.1 6.4 21.575 6.4 16s4.456-10.1 9.919-10.1c3.106 0 5.188 1.325 6.375 2.469l4.344-4.181C24.25 1.576 20.638 0 16.319 0c-8.844 0-16 7.156-16 16s7.156 16 16 16c9.231 0 15.363-6.494 15.363-15.631 0-1.05-.113-1.85-.25-2.65l-15.113-.006z"/></symbol><symbol id="icon-twitter" viewBox="0 0 32 32"><path d="M32 6.078c-1.19.522-2.458.868-3.78 1.036a6.523 6.523 0 0 0 2.886-3.626 13.11 13.11 0 0 1-4.16 1.588A6.574 6.574 0 0 0 22.154 3c-3.632 0-6.556 2.948-6.556 6.562 0 .52.044 1.02.152 1.496-5.454-.266-10.28-2.88-13.522-6.862a6.605 6.605 0 0 0-.898 3.316 6.57 6.57 0 0 0 2.914 5.452 6.479 6.479 0 0 1-2.964-.808v.072c0 3.188 2.274 5.836 5.256 6.446a6.548 6.548 0 0 1-1.72.216 5.8 5.8 0 0 1-1.242-.112c.85 2.598 3.262 4.508 6.13 4.57a13.182 13.182 0 0 1-8.134 2.798c-.538 0-1.054-.024-1.57-.09A18.469 18.469 0 0 0 10.064 29c12.072 0 18.672-10 18.672-18.668 0-.29-.01-.57-.024-.848A13.087 13.087 0 0 0 32 6.078z"/></symbol><symbol id="icon-facebook" viewBox="0 0 32 32"><path d="M21.329 5.313h2.921V.225C23.746.156 22.013 0 19.994 0c-4.212 0-7.097 2.649-7.097 7.519V12H8.249v5.688h4.648V32h5.699V17.689h4.46l.708-5.688h-5.169V8.082c.001-1.644.444-2.769 2.735-2.769z"/></symbol></defs></svg>