<svg aria-hidden="true" style="position: absolute; width: 0; height: 0; overflow: hidden;" version="1.1" xmlns="http://www.w3.org/2000/svg" xmlns:xlink="http://www.w3.org/1999/xlink">
<defs>
<symbol id="icon-github" viewBox="0 0 32 32">
<path  d="M16 0.378c-5.873 0-10.636 4.762-10.636 10.636 0 4.699 3.047 8.686 7.274 10.092 0.531 0.099 0.727-0.231 0.727-0.512 0-0.253-0.010-1.091-0.014-1.98-2.959 0.643-3.583-1.255-3.583-1.255-0.484-1.23-1.181-1.556-1.181-1.556-0.965-0.66 0.072-0.646 0.072-0.646 1.068 0.075 1.631 1.096 1.631 1.096 0.948 1.626 2.488 1.156 3.095 0.884 0.096-0.688 0.371-1.157 0.675-1.422-2.362-0.269-4.846-1.181-4.846-5.256 0-1.161 0.415-2.11 1.096-2.855-0.111-0.268-0.475-1.35 0.103-2.815 0 0 0.893-0.285 2.925 1.091 0.849-0.236 1.759-0.354 2.662-0.358 0.904 0.004 1.815 0.122 2.664 0.358 2.030-1.376 2.922-1.091 2.922-1.091 0.579 1.465 0.215 2.547 0.105 2.815 0.682 0.745 1.095 1.694 1.095 2.855 0 4.085-2.488 4.984-4.857 5.248 0.381 0.33 0.721 0.977 0.721 1.97 0 1.423-0.012 2.568-0.012 2.919 0 0.282 0.192 0.614 0.73 0.51 4.224-1.408 7.267-5.393 7.267-10.091 0-5.873-4.761-10.635-10.636-10.635z"></path>
<path  d="M9.393 15.649c-0.024 0.053-0.107 0.069-0.182 0.033-0.078-0.035-0.12-0.107-0.095-0.16 0.023-0.054 0.106-0.069 0.183-0.033 0.078 0.035 0.121 0.107 0.095 0.161zM9.823 16.13c-0.051 0.047-0.15 0.025-0.217-0.049-0.069-0.074-0.082-0.174-0.031-0.221s0.148-0.025 0.217 0.049c0.070 0.075 0.084 0.173 0.031 0.221zM10.242 16.742c-0.065 0.046-0.172 0.003-0.238-0.092s-0.066-0.207 0.001-0.253c0.066-0.046 0.171-0.005 0.238 0.089 0.066 0.096 0.066 0.21-0.001 0.256zM10.817 17.334c-0.058 0.064-0.182 0.047-0.273-0.041-0.093-0.086-0.119-0.207-0.060-0.272s0.184-0.046 0.275 0.041c0.092 0.085 0.12 0.207 0.058 0.271zM11.61 17.677c-0.026 0.084-0.146 0.121-0.266 0.086-0.12-0.037-0.199-0.134-0.175-0.218 0.025-0.084 0.146-0.123 0.267-0.085 0.12 0.036 0.199 0.133 0.174 0.218zM12.48 17.741c0.003 0.087-0.099 0.16-0.226 0.162-0.127 0.003-0.23-0.068-0.232-0.154 0-0.088 0.1-0.16 0.227-0.163s0.23 0.068 0.23 0.155zM13.29 17.604c0.015 0.085-0.072 0.174-0.198 0.197-0.123 0.023-0.238-0.030-0.254-0.115-0.015-0.087 0.074-0.175 0.197-0.198 0.126-0.022 0.238 0.029 0.254 0.116z"></path>
<path  d="M6.214 27.076h-2.675c-0.069 0-0.125 0.056-0.125 0.125v0 1.308c0 0.069 0.056 0.125 0.125 0.125v0h1.043v1.625s-0.234 0.080-0.882 0.080c-0.764 0-1.832-0.279-1.832-2.627s1.112-2.657 2.156-2.657c0.904 0 1.293 0.159 1.54 0.236 0.077 0.023 0.15-0.054 0.15-0.123l0.298-1.264c0-0.001 0-0.002 0-0.003 0-0.039-0.019-0.073-0.048-0.094l-0-0c-0.101-0.072-0.714-0.415-2.264-0.415-1.786 0-3.618 0.759-3.618 4.412s2.098 4.197 3.865 4.197c1.464 0 2.351-0.625 2.351-0.625 0.037-0.020 0.040-0.071 0.040-0.095v-4.079c0-0.069-0.056-0.125-0.125-0.125v0zM19.877 23.703h-1.506c-0.069 0-0.125 0.056-0.125 0.125 0 0 0 0.001 0 0.001v-0l0 2.911h-2.348v-2.911c0-0 0-0 0-0.001 0-0.069-0.056-0.125-0.124-0.125h-1.506c-0.069 0-0.124 0.056-0.124 0.125 0 0 0 0.001 0 0.001v-0 7.883c0 0.069 0.056 0.126 0.124 0.126h1.506c0.069-0 0.124-0.056 0.124-0.125 0-0 0-0.001 0-0.001v0-3.372h2.348l-0.004 3.372c0 0.070 0.056 0.126 0.125 0.126h1.509c0.069-0 0.124-0.056 0.124-0.125 0-0 0-0.001 0-0.001v0-7.883c0-0.070-0.055-0.125-0.124-0.125zM8.085 23.882c-0.536 0-0.971 0.438-0.971 0.981s0.435 0.981 0.971 0.981c0.537 0 0.971-0.439 0.971-0.981s-0.435-0.981-0.971-0.981zM8.824 26.284h-1.502c-0.069 0-0.13 0.071-0.13 0.14v5.213c0 0.153 0.096 0.199 0.219 0.199h1.353c0.149 0 0.185-0.073 0.185-0.201v-5.225c0-0 0-0 0-0 0-0.069-0.056-0.125-0.124-0.125h-0zM25.726 26.296h-1.495c-0.069 0.001-0.124 0.056-0.124 0.125 0 0 0 0.001 0 0.001v-0 3.865s-0.38 0.277-0.919 0.277-0.682-0.244-0.682-0.772v-3.37c0-0 0-0.001 0-0.001 0-0.069-0.056-0.125-0.124-0.125h-1.517c-0.069 0.001-0.125 0.057-0.125 0.125 0 0 0 0 0 0.001v-0 3.625c0 1.567 0.874 1.951 2.076 1.951 0.986 0 1.781-0.545 1.781-0.545s0.038 0.288 0.055 0.321c0.017 0.034 0.062 0.068 0.11 0.068l0.965-0.004c0.069-0 0.125-0.056 0.125-0.125 0-0 0-0 0-0.001v0l-0.001-5.291c-0-0.069-0.056-0.125-0.125-0.125h-0zM29.811 26.119c-0.849 0-1.427 0.379-1.427 0.379v-2.669c0-0 0-0 0-0.001 0-0.069-0.056-0.125-0.124-0.125h-1.51c0 0 0 0 0 0-0.069 0-0.125 0.056-0.125 0.125 0 0 0 0.001 0 0.001v-0 7.883c0 0 0 0 0 0.001 0 0.069 0.056 0.125 0.125 0.125 0 0 0 0 0 0h1.048c0.047 0 0.083-0.024 0.109-0.067s0.064-0.363 0.064-0.363 0.617 0.585 1.787 0.585c1.372 0 2.16-0.696 2.16-3.125s-1.258-2.747-2.107-2.747zM29.221 30.559c-0.518-0.016-0.87-0.251-0.87-0.251v-2.496s0.347-0.212 0.773-0.251c0.538-0.048 1.057 0.114 1.057 1.398 0 1.354-0.234 1.622-0.959 1.599zM13.299 30.53c-0.066 0-0.234 0.027-0.408 0.027-0.555 0-0.743-0.258-0.743-0.592v-2.216h1.13c0 0 0 0 0 0 0.069 0 0.125-0.056 0.125-0.125 0-0 0-0.001 0-0.001v0-1.214c0-0 0-0 0-0 0-0.069-0.056-0.125-0.125-0.125 0 0 0 0 0 0h-1.13l-0.002-1.492c0-0.057-0.029-0.085-0.095-0.085h-1.54c-0.059 0-0.092 0.026-0.092 0.084v1.543s-0.772 0.186-0.824 0.201c-0.052 0.016-0.090 0.063-0.090 0.12v0.969c0 0 0 0 0 0.001 0 0.069 0.056 0.125 0.124 0.125h0.79v2.332c0 1.733 1.215 1.902 2.035 1.902 0.374 0 0.822-0.12 0.896-0.148 0.045-0.017 0.071-0.063 0.071-0.113l0.001-1.066c-0.001-0.069-0.056-0.124-0.125-0.125h-0z"></path>
</symbol>
<symbol id="icon-linkedin" viewBox="0 0 32 32">
<path d="M31.992 32v-0.001h0.008v-11.736c0-5.741-1.236-10.164-7.948-10.164-3.227 0-5.392 1.771-6.276 3.449h-0.093v-2.913h-6.364v21.364h6.627v-10.579c0-2.785 0.528-5.479 3.977-5.479 3.399 0 3.449 3.179 3.449 5.657v10.401h6.62z"></path>
<path d="M0.528 10.636h6.635v21.364h-6.635v-21.364z"></path>
<path d="M3.843 0c-2.121 0-3.843 1.721-3.843 3.843s1.721 3.879 3.843 3.879c2.121 0 3.843-1.757 3.843-3.879-0.001-2.121-1.723-3.843-3.843-3.843v0z"></path>
</symbol>
</defs>
</svg>