<svg aria-hidden="true" style="position: absolute; width: 0; height: 0; overflow: hidden;" version="1.1" xmlns="http://www.w3.org/2000/svg" xmlns:xlink="http://www.w3.org/1999/xlink">
<defs>
<symbol id="icon-apple" viewBox="0 0 26 32">
<path d="M25.219 10.909c-0.186 0.144-3.462 1.99-3.462 6.096 0 4.749 4.17 6.429 4.294 6.47-0.019 0.102-0.662 2.301-2.198 4.541-1.37 1.971-2.8 3.939-4.976 3.939s-2.736-1.264-5.248-1.264c-2.448 0-3.318 1.306-5.309 1.306s-3.379-1.824-4.976-4.064c-1.85-2.63-3.344-6.717-3.344-10.595 0-6.221 4.045-9.52 8.026-9.52 2.115 0 3.878 1.389 5.206 1.389 1.264 0 3.235-1.472 5.642-1.472 0.912 0 4.189 0.083 6.346 3.174zM17.731 5.101c0.995-1.181 1.699-2.819 1.699-4.458 0-0.227-0.019-0.458-0.061-0.643-1.619 0.061-3.546 1.078-4.707 2.426-0.912 1.037-1.763 2.675-1.763 4.336 0 0.25 0.042 0.499 0.061 0.579 0.102 0.019 0.269 0.042 0.435 0.042 1.453 0 3.28-0.973 4.336-2.282z"></path>
</symbol>
<symbol id="icon-gmail" viewBox="0 0 32 32">
<path  d="M2.182 28.482h5.091v-12.364l-7.273-5.455v15.636c0 1.205 0.976 2.182 2.182 2.182z"></path>
<path  d="M24.727 28.482h5.091c1.205 0 2.182-0.976 2.182-2.182v-15.636l-7.273 5.455z"></path>
<path  d="M24.727 6.664v9.455l7.273-5.455v-2.909c0-2.696-3.078-4.236-5.236-2.618z"></path>
<path  d="M7.273 16.118v-9.455l8.727 6.545 8.727-6.545v9.455l-8.727 6.545z"></path>
<path  d="M0 7.755v2.909l7.273 5.455v-9.455l-2.036-1.527c-2.158-1.618-5.236-0.078-5.236 2.618z"></path>
</symbol>
<symbol id="icon-twitter" viewBox="0 0 32 32">
<path  d="M32 6.078c-1.19 0.522-2.458 0.868-3.78 1.036 1.36-0.812 2.398-2.088 2.886-3.626-1.268 0.756-2.668 1.29-4.16 1.588-1.204-1.282-2.92-2.076-4.792-2.076-3.632 0-6.556 2.948-6.556 6.562 0 0.52 0.044 1.020 0.152 1.496-5.454-0.266-10.28-2.88-13.522-6.862-0.566 0.982-0.898 2.106-0.898 3.316 0 2.272 1.17 4.286 2.914 5.452-1.054-0.020-2.088-0.326-2.964-0.808 0 0.020 0 0.046 0 0.072 0 3.188 2.274 5.836 5.256 6.446-0.534 0.146-1.116 0.216-1.72 0.216-0.42 0-0.844-0.024-1.242-0.112 0.85 2.598 3.262 4.508 6.13 4.57-2.232 1.746-5.066 2.798-8.134 2.798-0.538 0-1.054-0.024-1.57-0.090 2.906 1.874 6.35 2.944 10.064 2.944 12.072 0 18.672-10 18.672-18.668 0-0.29-0.010-0.57-0.024-0.848 1.302-0.924 2.396-2.078 3.288-3.406z"></path>
</symbol>
<symbol id="icon-facebook" viewBox="0 0 32 32">
<path d="M21.329 5.313h2.921v-5.088c-0.504-0.069-2.237-0.225-4.256-0.225-4.212 0-7.097 2.649-7.097 7.519v4.481h-4.648v5.688h4.648v14.312h5.699v-14.311h4.46l0.708-5.688h-5.169v-3.919c0.001-1.644 0.444-2.769 2.735-2.769v0z"></path>
</symbol>
</defs>
</svg>
